# xmcd
#
# Track frame offsets: 
#        150
#        11390
#        24000
#        32899
#        43024
#        56277
#        69449
#        86393
#        94161
#        108497
#        123861
#        138085
#        151929
#        164116
#        178492
#        197147
#        210719
#        225000
#        239922
#        254484
#        268529
#        280495
#        294757
#        306052
#        318880
#        332951
#        345850
#
# Disc length: 4762 seconds
#
# Revision: 2
# Processed by: cddbd v1.5.2PL0 Copyright (c) Steve Scherf et al.
# Submitted via: ExactAudioCopyFreeDBPlugin 1.0
#
DISCID=7512981b
DTITLE=Various Artist - Really The Blues? A Blues History - Vol 1 (18
DTITLE=93-1929) [cd1]
DYEAR=2010
DGENRE=Blues
TTITLE0=Unique Quartet Fall (1893) - Mama's Black Baby Boy
TTITLE1=Standard Quartet (1894) - Keep Movin'
TTITLE2=Cousins And DeMoss (1897) - Poor Mourner
TTITLE3=Len Spencer (1900 Or 1901) - You Been A Good Old Wagon
TTITLE4=Dinwiddie Colored Quartet (29 Nov 1902) - Poor Mourner
TTITLE5=Bert Williams (May 1906) - Nobody
TTITLE6=Polk Miller and His Old South Quartet (Dec 1909) - What A Time
TTITLE7=Male Quartet (C. 1910) - The Camp Meeting Jubilee
TTITLE8=Fisk University Jubilee Quartet (10 Feb 1911)Poor Mourner - Po
TTITLE8=or Mourner
TTITLE9=James Reese Europe (29 Dec 1913) - Down Home Rag
TTITLE10=Afro American Folk Song Singers (12 Mar 1914)The Rain Song - 
TTITLE10=The Rain Song
TTITLE11=Victor Military Band (15 July 14) [Comp WC Handy, 1912] - Mem
TTITLE11=phis Blues
TTITLE12=Morton Harvey (2 Oct 1914) [Comp WC Handy, 1912] - Memphis Bl
TTITLE12=ues
TTITLE13=Victor Military Orchestra (8 April 1915) - Blame It On The Bl
TTITLE13=ues
TTITLE14=Prince's Band (18 Dec 1915) [Comp WC Handy, 1914] - St. Louis
TTITLE14=Blues
TTITLE15=George O'Connor (18 July 1916) - N Blues
TTITLE16=Original Dixieland Jazz Band (26 Feb 1917) - Livery Stable Bl
TTITLE16=ues
TTITLE17=WC Handy (24 Sept 1917) - Moonlight Blues
TTITLE18=Arthur Collins (1918) - Death Where Is Thy Sting?
TTITLE19=Al Bernard (1919) [WC Handy, 1916]Beale Street Blues - Beale 
TTITLE19=Street Blues
TTITLE20=James Reese Europe (7 Mar 1919) - Memphis Blues
TTITLE21=Wilbur Sweatman Col. (22 Mar 1919) - Kansas City Blues
TTITLE22=J. Milton DeCamp (1920) - Swanee Blues
TTITLE23=Mamie Smith (6 Nov 1920) - Lovin' Sam From Alabam
TTITLE24=Mamie Smith (21 Feb 1921) - Frankie Blues
TTITLE25=Sam Moore, Octacorda (July 1921) - Chain Gang Blues
TTITLE26=Florida Normal and Industrial Institute Quartet (Sept 1922) - M
TTITLE26=y Soul Is A Witness
EXTD=Curated by Allen Lowe - 9 discs plus booklet in pdf format - West H
EXTD=ill Radio Archives, 2010
EXTT0=
EXTT1=
EXTT2=
EXTT3=
EXTT4=
EXTT5=
EXTT6=
EXTT7=
EXTT8=
EXTT9=
EXTT10=
EXTT11=
EXTT12=
EXTT13=
EXTT14=
EXTT15=
EXTT16=
EXTT17=
EXTT18=
EXTT19=
EXTT20=
EXTT21=
EXTT22=
EXTT23=
EXTT24=
EXTT25=
EXTT26=
PLAYORDER=
